# Blender v2.78 (sub 0) OBJ File: 'CHAHIN_POPSICLE.blend'
# www.blender.org
mtllib CHAHIN_POPSICLE.mtl
o Cube.005_Cube.004
v 0.401388 -0.084377 -0.218404
v 0.404150 0.171520 -0.210637
v 0.556951 -0.084377 0.219210
v 0.404150 0.171520 0.211443
v 0.402732 0.040147 0.215431
v 0.555608 0.040147 0.215431
v 0.554190 0.171520 0.211443
v 0.554190 0.171520 -0.210637
v 0.411700 0.871307 0.190203
v 0.461212 -0.084377 -0.061169
v 0.461212 -0.409587 0.061975
v 0.497128 -0.409587 0.061975
v 0.415354 -0.084377 -0.130881
v 0.415354 -0.084377 -0.043358
v 0.415354 -0.084377 0.044164
v 0.415354 -0.084377 0.131687
v 0.417619 0.171520 0.127027
v 0.417619 0.171520 0.042611
v 0.417619 0.171520 -0.041805
v 0.417619 0.171520 -0.126221
v 0.416456 0.040147 0.129420
v 0.416456 0.040147 0.043409
v 0.416456 0.040147 -0.042602
v 0.416456 0.040147 -0.128613
v 0.541884 0.040147 -0.128613
v 0.541884 0.040147 -0.042602
v 0.541884 0.040147 0.043409
v 0.541884 0.040147 0.129420
v 0.542986 -0.084377 0.131687
v 0.542986 -0.084377 0.044164
v 0.542986 -0.084377 -0.043358
v 0.542986 -0.084377 -0.130881
v 0.540721 0.171520 -0.126221
v 0.540721 0.171520 -0.041805
v 0.540721 0.171520 0.042611
v 0.540721 0.171520 0.127027
v 0.423814 0.871307 0.114283
v 0.423814 0.871307 0.038363
v 0.423814 0.871307 -0.037557
v 0.423814 0.871307 -0.113477
v 0.534526 0.871307 -0.113477
v 0.534526 0.871307 -0.037557
v 0.534526 0.871307 0.038363
v 0.534526 0.871307 0.114283
v 0.461212 -0.084377 0.061975
v 0.497128 -0.084377 0.061975
v 0.497128 -0.084377 -0.061169
v 0.461212 -0.409587 -0.061169
v 0.497128 -0.409587 -0.061169
v 0.401388 -0.084377 0.131687
v 0.401388 -0.084377 0.219210
v 0.404150 0.171520 -0.126221
v 0.402732 0.040147 -0.128613
v 0.402732 0.040147 -0.214624
v 0.555608 0.040147 0.129420
v 0.556951 -0.084377 -0.130881
v 0.556951 -0.084377 -0.218404
v 0.554190 0.171520 0.127027
v 0.411700 0.871307 -0.189397
v 0.546640 0.871307 0.190203
v 0.555608 0.040147 -0.214624
v 0.411700 0.871307 -0.113477
v 0.546640 0.871307 0.114283
v 0.546640 0.871307 -0.189397
v 0.401388 -0.084377 -0.130881
v 0.401388 -0.084377 -0.043358
v 0.401388 -0.084377 0.044164
v 0.404150 0.171520 0.127027
v 0.404150 0.171520 0.042611
v 0.404150 0.171520 -0.041805
v 0.402732 0.040147 0.129420
v 0.402732 0.040147 0.043409
v 0.402732 0.040147 -0.042602
v 0.555608 0.040147 -0.128613
v 0.555608 0.040147 -0.042602
v 0.555608 0.040147 0.043409
v 0.556951 -0.084377 0.131687
v 0.556951 -0.084377 0.044164
v 0.556951 -0.084377 -0.043358
v 0.554190 0.171520 -0.126221
v 0.554190 0.171520 -0.041805
v 0.554190 0.171520 0.042611
v 0.411700 0.871307 0.114283
v 0.411700 0.871307 0.038363
v 0.411700 0.871307 -0.037557
v 0.546640 0.871307 -0.113477
v 0.546640 0.871307 -0.037557
v 0.546640 0.871307 0.038363
vt 0.1612 0.4380
vt 0.0908 0.4348
vt 0.0908 0.0940
vt 0.1612 0.0908
vt 0.8332 0.0577
vt 0.8887 0.0603
vt 0.8887 0.3527
vt 0.8332 0.3552
vt 0.9072 0.5543
vt 0.9072 0.7457
vt 0.8953 0.7452
vt 0.8940 0.5537
vt 0.7287 0.0844
vt 0.7777 0.0577
vt 0.6897 0.1721
vt 0.5496 0.7450
vt 0.5570 0.5537
vt 0.6900 0.5537
vt 0.6975 0.7450
vt 0.9228 0.7459
vt 0.9228 0.9373
vt 0.9095 0.9379
vt 0.9108 0.7465
vt 0.2317 0.4380
vt 0.1612 0.4348
vt 0.1612 0.0940
vt 0.2317 0.0908
vt 0.5714 0.7593
vt 0.5714 0.8896
vt 0.5496 0.9039
vt 0.5496 0.7450
vt 0.6975 0.7450
vt 0.7049 0.5537
vt 0.8380 0.5537
vt 0.8454 0.7450
vt 0.5714 0.7450
vt 0.8332 0.3552
vt 0.7777 0.3527
vt 0.7777 0.0603
vt 0.8332 0.0577
vt 0.0271 0.5480
vt 0.1365 0.5480
vt 0.1365 0.8444
vt 0.0271 0.8444
vt 0.7777 0.3552
vt 0.6897 0.2408
vt 0.5327 0.3552
vt 0.5327 0.0577
vt 0.6207 0.1721
vt 0.6207 0.2408
vt 0.5817 0.3285
vt 0.1365 0.5480
vt 0.2458 0.5480
vt 0.2458 0.8444
vt 0.1365 0.8444
vt 0.2458 0.5480
vt 0.3552 0.5480
vt 0.3552 0.8444
vt 0.2458 0.8444
vt 0.4645 0.8444
vt 0.3552 0.8444
vt 0.3552 0.5480
vt 0.4645 0.5480
vt 0.0271 0.8444
vt 0.1365 0.8444
vt 0.1365 0.9854
vt 0.0271 0.9854
vt 0.7287 0.3285
vt 0.6797 0.3285
vt 0.6307 0.3285
vt 0.6797 0.0844
vt 0.6307 0.0844
vt 0.6307 0.0577
vt 0.6797 0.0577
vt 0.7801 0.9366
vt 0.7825 0.7452
vt 0.8043 0.7450
vt 0.8043 0.9364
vt 0.9423 0.2822
vt 0.9423 0.3375
vt 0.9160 0.3365
vt 0.9155 0.2811
vt 0.7558 0.7452
vt 0.7558 0.9366
vt 0.7340 0.9364
vt 0.7315 0.7450
vt 0.5817 0.0844
vt 0.5817 0.0577
vt 0.8267 0.4109
vt 0.8275 0.3556
vt 0.8757 0.3552
vt 0.8757 0.4106
vt 0.6151 0.7593
vt 0.5932 0.7593
vt 0.5932 0.7450
vt 0.6151 0.7450
vt 0.9247 0.3556
vt 0.9247 0.4109
vt 0.8765 0.4106
vt 0.8757 0.3552
vt 0.6587 0.7450
vt 0.6587 0.9039
vt 0.6369 0.8896
vt 0.6369 0.7593
vt 0.6151 0.8896
vt 0.5932 0.8896
vt 0.9155 0.2811
vt 0.9155 0.3365
vt 0.8887 0.3375
vt 0.8892 0.2821
vt 0.7777 0.4109
vt 0.7785 0.3556
vt 0.8267 0.3552
vt 0.8267 0.4106
vt 0.6369 0.9039
vt 0.7777 0.3556
vt 0.7777 0.4109
vt 0.7295 0.4106
vt 0.7287 0.3552
vt 0.7287 0.0577
vt 0.2896 0.3717
vt 0.2907 0.3023
vt 0.3475 0.3019
vt 0.3475 0.3712
vt 0.3213 0.3729
vt 0.3213 0.4422
vt 0.2902 0.4410
vt 0.2896 0.3717
vt 0.3475 0.2326
vt 0.3475 0.3019
vt 0.2907 0.3015
vt 0.2896 0.2321
vt 0.6797 0.3552
vt 0.6307 0.3552
vt 0.7558 0.9366
vt 0.7582 0.7452
vt 0.7801 0.7450
vt 0.7801 0.9364
vt 0.9423 0.1694
vt 0.9423 0.2248
vt 0.9160 0.2238
vt 0.9155 0.1684
vt 0.8286 0.7452
vt 0.8286 0.9366
vt 0.8068 0.9364
vt 0.8043 0.7450
vt 0.2896 0.2321
vt 0.2907 0.1628
vt 0.3475 0.1624
vt 0.3475 0.2317
vt 0.4371 0.0908
vt 0.4371 0.1601
vt 0.4054 0.1613
vt 0.4060 0.0920
vt 0.4054 0.0912
vt 0.4054 0.1606
vt 0.3486 0.1601
vt 0.3475 0.0908
vt 0.2896 0.1628
vt 0.2896 0.2321
vt 0.2328 0.2309
vt 0.2317 0.1615
vt 0.7073 0.7457
vt 0.7073 0.9372
vt 0.6854 0.9366
vt 0.6830 0.7450
vt 0.2896 0.0921
vt 0.2896 0.1615
vt 0.2328 0.1602
vt 0.2317 0.0908
vt 0.6307 0.3563
vt 0.6307 0.4117
vt 0.5825 0.4106
vt 0.5817 0.3552
vt 0.5817 0.3563
vt 0.5817 0.4117
vt 0.5335 0.4106
vt 0.5327 0.3552
vt 0.8697 0.5544
vt 0.8697 0.7459
vt 0.8479 0.7453
vt 0.8454 0.5537
vt 0.7073 0.9372
vt 0.7097 0.7456
vt 0.7315 0.7450
vt 0.7315 0.9365
vt 0.8697 0.7452
vt 0.8709 0.5537
vt 0.8927 0.5537
vt 0.8940 0.7452
vt 0.6797 0.4117
vt 0.6805 0.3563
vt 0.7287 0.3552
vt 0.7287 0.4106
vt 0.8887 0.1684
vt 0.8891 0.1131
vt 0.9373 0.1131
vt 0.9377 0.1684
vt 0.6307 0.4117
vt 0.6315 0.3563
vt 0.6797 0.3552
vt 0.6797 0.4106
vt 0.8887 0.1131
vt 0.8891 0.0577
vt 0.9373 0.0577
vt 0.9377 0.1131
vt 0.2317 0.3028
vt 0.2328 0.2334
vt 0.2896 0.2321
vt 0.2896 0.3015
vt 0.3475 0.2317
vt 0.3481 0.1624
vt 0.4049 0.1624
vt 0.4054 0.2317
vt 0.6587 0.9372
vt 0.6612 0.7456
vt 0.6830 0.7450
vt 0.6830 0.9365
vt 0.8454 0.9374
vt 0.8466 0.7459
vt 0.8685 0.7459
vt 0.8697 0.9374
vt 0.2896 0.1615
vt 0.2907 0.0921
vt 0.3475 0.0908
vt 0.3475 0.1602
vt 0.3475 0.3015
vt 0.3481 0.2321
vt 0.4049 0.2321
vt 0.4054 0.3015
vt 0.7554 0.4109
vt 0.7554 0.4663
vt 0.7287 0.4673
vt 0.7291 0.4119
vt 0.8830 0.7459
vt 0.8830 0.9373
vt 0.8697 0.9379
vt 0.8710 0.7465
vt 0.7287 0.3552
vt 0.9155 0.2258
vt 0.9155 0.2811
vt 0.8892 0.2801
vt 0.8887 0.2248
vt 0.9095 0.7459
vt 0.9095 0.9373
vt 0.8962 0.9379
vt 0.8976 0.7465
vt 0.9205 0.5543
vt 0.9205 0.7457
vt 0.9086 0.7452
vt 0.9072 0.5537
vt 0.5714 0.9039
vt 0.9155 0.1684
vt 0.9155 0.2238
vt 0.8887 0.2248
vt 0.8892 0.1694
vt 0.8962 0.7465
vt 0.8962 0.9379
vt 0.8843 0.9374
vt 0.8830 0.7459
vt 0.4371 0.1624
vt 0.4371 0.2317
vt 0.4054 0.2329
vt 0.4060 0.1636
vt 0.7822 0.4120
vt 0.7822 0.4673
vt 0.7559 0.4663
vt 0.7554 0.4109
vt 0.8454 0.7450
vt 0.8454 0.9364
vt 0.8321 0.9370
vt 0.8335 0.7456
vt 0.4109 0.3027
vt 0.4109 0.3720
vt 0.3798 0.3709
vt 0.3792 0.3015
vt 0.6151 0.9039
vt 0.5932 0.9039
vt 0.4425 0.3720
vt 0.4425 0.4413
vt 0.4109 0.4425
vt 0.4114 0.3732
vt 0.9338 0.5543
vt 0.9338 0.7457
vt 0.9218 0.7452
vt 0.9205 0.5537
vt 0.5817 0.3552
vt 0.3792 0.3015
vt 0.3792 0.3708
vt 0.3475 0.3720
vt 0.3481 0.3027
vt 0.2634 0.3040
vt 0.2634 0.3733
vt 0.2323 0.3722
vt 0.2317 0.3028
vt 0.9423 0.2248
vt 0.9423 0.2801
vt 0.9155 0.2811
vt 0.9160 0.2258
vt 0.4425 0.3027
vt 0.4425 0.3720
vt 0.4114 0.3708
vt 0.4109 0.3015
vt 0.6369 0.7450
vn 0.0000 0.0303 -0.9995
vn 0.0000 0.0061 1.0000
vn 0.0000 -1.0000 0.0000
vn 0.0000 0.0303 0.9995
vn 0.0000 -0.0182 -0.9998
vn 0.0000 1.0000 0.0000
vn 0.0000 0.0000 1.0000
vn 0.0000 0.0000 -1.0000
vn -1.0000 0.0000 0.0000
vn 1.0000 0.0000 0.0000
vn 1.0000 0.0089 0.0000
vn -1.0000 0.0089 0.0000
vn 0.0000 -0.0182 0.9998
vn 0.0000 0.0061 -1.0000
vn 0.9999 0.0108 0.0000
vn -0.9999 0.0108 0.0000
usemtl Material.014
s off
f 54/1/1 2/2/1 8/3/1 61/4/1
f 1/5/1 54/6/1 61/7/1 57/8/1
f 18/9/2 38/10/2 84/11/2 69/12/2
f 29/13/3 3/14/3 46/15/3
f 7/16/4 60/17/4 9/18/4 4/19/4
f 37/20/5 17/21/5 68/22/5 83/23/5
f 6/24/4 7/25/4 4/26/4 5/27/4
f 44/28/6 37/29/6 9/30/6 60/31/6
f 2/32/1 59/33/1 64/34/1 8/35/1
f 44/28/6 60/31/6 63/36/6
f 3/37/4 6/38/4 5/39/4 51/40/4
f 46/41/7 45/42/7 11/43/7 12/44/7
f 3/14/3 51/45/3 45/46/3 46/15/3
f 1/47/3 57/48/3 47/49/3 10/50/3
f 13/51/3 1/47/3 10/50/3
f 10/52/8 47/53/8 49/54/8 48/55/8
f 45/56/9 10/57/9 48/58/9 11/59/9
f 47/60/10 46/61/10 12/62/10 49/63/10
f 48/64/3 49/65/3 12/66/3 11/67/3
f 51/45/3 16/68/3 45/46/3
f 16/68/3 15/69/3 45/46/3
f 15/69/3 14/70/3 10/50/3 45/46/3
f 14/70/3 13/51/3 10/50/3
f 30/71/3 31/72/3 79/73/3 78/74/3
f 33/75/11 41/76/11 42/77/11 34/78/11
f 29/79/5 28/80/5 55/81/5 77/82/5
f 35/83/11 43/84/11 44/85/11 36/86/11
f 32/87/3 57/48/3 56/88/3
f 32/89/11 25/90/11 26/91/11 31/92/11
f 42/93/6 43/94/6 88/95/6 87/96/6
f 30/97/11 27/98/11 28/99/11 29/100/11
f 64/101/6 59/102/6 40/103/6 41/104/6
f 41/104/6 40/103/6 39/105/6 42/93/6
f 42/93/6 39/105/6 38/106/6 43/94/6
f 43/94/6 38/106/6 37/29/6 44/28/6
f 27/107/2 30/108/2 78/109/2 76/110/2
f 16/111/12 21/112/12 22/113/12 15/114/12
f 40/103/6 59/102/6 62/115/6
f 14/116/12 23/117/12 24/118/12 13/119/12
f 3/14/3 29/13/3 77/120/3
f 21/121/12 17/122/12 18/123/12 22/124/12
f 24/125/13 20/126/13 52/127/13 53/128/13
f 23/129/12 19/130/12 20/131/12 24/132/12
f 57/48/3 32/87/3 47/49/3
f 32/87/3 31/72/3 47/49/3
f 31/72/3 30/71/3 46/15/3 47/49/3
f 30/71/3 29/13/3 46/15/3
f 14/70/3 15/69/3 67/133/3 66/134/3
f 17/135/12 37/136/12 38/137/12 18/138/12
f 31/139/14 26/140/14 75/141/14 79/142/14
f 19/143/12 39/144/12 40/145/12 20/146/12
f 25/147/11 33/148/11 34/149/11 26/150/11
f 19/151/14 23/152/14 73/153/14 70/154/14
f 27/155/11 35/156/11 36/157/11 28/158/11
f 55/159/15 58/160/15 7/161/15 6/162/15
f 52/163/16 62/164/16 59/165/16 2/166/16
f 53/167/16 52/168/16 2/169/16 54/170/16
f 65/171/16 53/172/16 54/173/16 1/174/16
f 77/175/15 55/176/15 6/177/15 3/178/15
f 58/179/15 63/180/15 60/181/15 7/182/15
f 8/183/15 64/184/15 86/185/15 80/186/15
f 81/187/15 87/188/15 88/189/15 82/190/15
f 57/191/15 61/192/15 74/193/15 56/194/15
f 79/195/15 75/196/15 76/197/15 78/198/15
f 51/199/16 5/200/16 71/201/16 50/202/16
f 67/203/16 72/204/16 73/205/16 66/206/16
f 5/207/16 4/208/16 68/209/16 71/210/16
f 72/211/16 69/212/16 70/213/16 73/214/16
f 4/215/16 9/216/16 83/217/16 68/218/16
f 69/219/16 84/220/16 85/221/16 70/222/16
f 61/223/15 8/224/15 80/225/15 74/226/15
f 75/227/15 81/228/15 82/229/15 76/230/15
f 21/231/5 16/232/5 50/233/5 71/234/5
f 39/235/14 19/236/14 70/237/14 85/238/14
f 16/68/3 51/45/3 50/239/3
f 15/240/2 22/241/2 72/242/2 67/243/2
f 41/244/13 33/245/13 80/246/13 86/247/13
f 20/248/13 40/249/13 62/250/13 52/251/13
f 9/30/6 37/29/6 83/252/6
f 23/253/14 14/254/14 66/255/14 73/256/14
f 34/257/14 42/258/14 87/259/14 81/260/14
f 33/261/13 25/262/13 74/263/13 80/264/13
f 13/265/13 24/266/13 53/267/13 65/268/13
f 43/269/2 35/270/2 82/271/2 88/272/2
f 26/273/14 34/274/14 81/275/14 75/276/14
f 38/106/6 39/105/6 85/277/6 84/278/6
f 17/279/5 21/280/5 71/281/5 68/282/5
f 36/283/5 44/284/5 63/285/5 58/286/5
f 1/47/3 13/51/3 65/287/3
f 35/288/2 27/289/2 76/290/2 82/291/2
f 22/292/2 18/293/2 69/294/2 72/295/2
f 25/296/13 32/297/13 56/298/13 74/299/13
f 28/300/5 36/301/5 58/302/5 55/303/5
f 64/101/6 41/104/6 86/304/6
